<svg width="34" height="25" viewBox="0 0 34 25" fill="none" xmlns="http://www.w3.org/2000/svg">
<path d="M32.4858 24.1438C4.42595 24.1438 1.96205 0.915198 1.93958 0.675842L3.25918 0.567993C3.26518 0.625831 3.85061 6.44534 7.92036 12.0693C13.356 19.5809 22.1135 23.2177 33.9599 22.8747L34.0001 24.121C33.4886 24.1358 32.9813 24.1432 32.4859 24.1432L32.4858 24.1438Z" fill="black"/>
<path d="M0.663199 6.60295C0.615607 6.60295 0.566629 6.59816 0.517648 6.58816C0.160482 6.51293 -0.0640835 6.17937 0.0163156 5.84322L1.29061 0.487334C1.34051 0.276423 1.5027 0.105078 1.71986 0.0341953C1.93426 -0.0362543 2.17638 0.0037523 2.35427 0.139433L6.14179 3.04131C6.42595 3.25875 6.46846 3.65145 6.2379 3.91846C6.00826 4.18547 5.58963 4.22721 5.30639 4.00804L2.34876 1.74229L1.30867 6.11493C1.24029 6.40586 0.966756 6.60286 0.663186 6.60286L0.663199 6.60295Z" fill="black"/>
</svg>
