<?xml version="1.0" encoding="utf-8"?>
<!-- Generator: Adobe Illustrator 23.0.0, SVG Export Plug-In . SVG Version: 6.00 Build 0)  -->
<svg version="1.1" id="Capa_1" xmlns="http://www.w3.org/2000/svg" xmlns:xlink="http://www.w3.org/1999/xlink" x="0px" y="0px"
	 viewBox="0 0 475.5 475.5" style="enable-background:new 0 0 475.5 475.5;" xml:space="preserve">
<style type="text/css">
	.st0{fill:#FFFFFF;}
</style>
<g>
	<g>
		<path class="st0" d="M317.8,312.9c10.4-10.4,18.5-22.6,24.2-36.1c5.9-14,8.9-28.9,8.9-44.2s-3-30.2-8.9-44.2
			c-5.7-13.5-13.8-25.7-24.2-36.1c-10.4-10.4-22.4-18.6-35.9-24.3C268,122,253.2,119,238,119c-15.2,0-30,3-43.9,8.9
			c-13.4,5.7-25.5,13.9-35.9,24.3c-10.4,10.4-18.5,22.6-24.2,36.1c-5.9,14-8.9,28.9-8.9,44.2s3,30.2,8.9,44.2
			c5.7,13.5,13.8,25.7,24.2,36.1s22.4,18.6,35.9,24.3c13.9,5.9,28.7,8.9,43.9,8.9c15.2,0,30-3,43.9-8.9
			C295.4,331.6,307.5,323.4,317.8,312.9z M238,160.7c39.4,0,71.4,32.2,71.4,71.9c0,39.7-32,71.9-71.4,71.9
			c-39.4,0-71.4-32.2-71.4-71.9C166.6,192.9,198.6,160.7,238,160.7z"/>
		<path class="st0" d="M238,346.7c-15.3,0-30.1-3-44.1-9c-13.5-5.7-25.6-14-36-24.4c-10.4-10.5-18.6-22.7-24.3-36.3
			c-5.9-14.1-8.9-29-8.9-44.4s3-30.3,8.9-44.4c5.7-13.6,13.9-25.8,24.3-36.3c10.4-10.5,22.5-18.7,36-24.4c14-6,28.9-9,44.1-9
			c15.3,0,30.1,3,44.1,9c13.5,5.7,25.6,14,36,24.4c10.4,10.5,18.6,22.7,24.3,36.3c5.9,14.1,8.9,29,8.9,44.4c0,15.4-3,30.3-8.9,44.4
			c-5.7,13.6-13.9,25.8-24.3,36.3c-10.4,10.5-22.5,18.7-36,24.4C268.2,343.7,253.3,346.7,238,346.7z M238,119.5
			c-15.2,0-29.9,3-43.8,8.9c-13.4,5.7-25.4,13.9-35.7,24.2c-10.3,10.4-18.4,22.5-24.1,35.9c-5.9,14-8.8,28.8-8.8,44
			c0,15.3,3,30.1,8.8,44c5.7,13.5,13.8,25.6,24.1,35.9c10.3,10.4,22.3,18.5,35.7,24.2c13.9,5.9,28.6,8.9,43.8,8.9
			c15.2,0,29.9-3,43.8-8.9c13.4-5.7,25.4-13.9,35.7-24.2c10.3-10.4,18.4-22.5,24.1-35.9c5.9-14,8.8-28.8,8.8-44
			c0-15.3-3-30.1-8.8-44c-5.7-13.5-13.8-25.6-24.1-35.9s-22.3-18.5-35.7-24.2C267.9,122.5,253.2,119.5,238,119.5z M238,305
			c-39.7,0-71.9-32.5-71.9-72.4s32.3-72.4,71.9-72.4c39.7,0,71.9,32.5,71.9,72.4S277.7,305,238,305z M238,161.2
			c-39.1,0-70.9,32-70.9,71.4S198.9,304,238,304c39.1,0,70.9-32,70.9-71.4S277.1,161.2,238,161.2z"/>
	</g>
	<g>
		<path class="st0" d="M238.7,368.8c-11.4,0-20.7,9.3-20.7,20.8l-0.2,53.1c0,11.5,9.2,20.9,20.7,20.9c0,0,0,0,0.1,0
			c11.4,0,20.7-9.3,20.7-20.8l0.2-53.1C259.4,378.2,250.2,368.8,238.7,368.8C238.7,368.8,238.7,368.8,238.7,368.8z"/>
		<path class="st0" d="M238.5,464.1L238.5,464.1c-5.7,0-11.1-2.3-15-6.3c-4-4-6.2-9.4-6.2-15.1l0.2-53.1c0-11.7,9.5-21.3,21.2-21.3
			c5.7,0,11.1,2.3,15,6.3c4,4,6.2,9.4,6.2,15.1l-0.2,53.1C259.7,454.6,250.2,464.1,238.5,464.1z M238.7,369.3
			c-11.2,0-20.3,9.1-20.3,20.3l-0.2,53.1c0,5.4,2.1,10.6,5.9,14.4c3.8,3.9,8.9,6,14.3,6l0.1,0.5v-0.5c11.1,0,20.2-9.1,20.2-20.3
			l0.2-53.1c0-5.4-2.1-10.6-5.9-14.4C249.2,371.4,244.1,369.3,238.7,369.3z"/>
	</g>
	<g>
		<path class="st0" d="M237.4,96.4c0.1,0,0.1,0,0.2,0c11.4-0.1,20.6-9.5,20.6-21l-0.4-53.1c-0.1-11.5-9.4-20.8-20.9-20.7
			c-11.4,0.1-20.6,9.5-20.6,21l0.4,53.1C216.8,87.2,226,96.4,237.4,96.4z"/>
		<path class="st0" d="M237.4,96.9c-11.6,0-21.1-9.5-21.2-21.2l-0.4-53.1c0-5.7,2.1-11.1,6.1-15.1c4-4.1,9.3-6.3,14.9-6.4h0.2
			c11.6,0,21.1,9.5,21.2,21.2l0.4,53.1c0.1,11.8-9.3,21.4-21,21.5L237.4,96.9z M236.9,2.1h-0.1c-5.4,0-10.5,2.2-14.3,6.1
			c-3.8,3.9-5.9,9-5.8,14.5l0.4,53.1c0.1,11.1,9.2,20.2,20.2,20.2h0.2c11.2-0.1,20.2-9.3,20.1-20.5l-0.4-53.1
			C257.1,11.1,248,2.1,236.9,2.1z"/>
	</g>
	<g>
		<path class="st0" d="M28.9,212.5c-11.4,0-20.7,9.3-20.7,20.8c0,11.5,9.2,20.9,20.7,20.9l52.8,0.2c0,0,0,0,0.1,0
			c11.4,0,20.7-9.3,20.7-20.8c0-11.5-9.2-20.9-20.7-20.9L28.9,212.5C29,212.5,29,212.5,28.9,212.5z"/>
		<path class="st0" d="M81.7,254.9L81.7,254.9l-52.8-0.2c-11.7,0-21.2-9.6-21.1-21.4c0-11.7,9.5-21.3,21.2-21.3l52.8,0.2
			c5.7,0,11,2.3,15,6.3c4,4,6.2,9.4,6.2,15.1C102.9,245.4,93.4,254.9,81.7,254.9z M29,213c-11.2,0-20.3,9.1-20.3,20.3
			c0,11.2,9,20.4,20.2,20.4l52.8,0.2l0.1,0.5v-0.5c11.1,0,20.2-9.1,20.2-20.3c0-5.4-2.1-10.6-5.9-14.4c-3.8-3.9-8.9-6-14.3-6L29,213
			z"/>
	</g>
	<g>
		<path class="st0" d="M467.2,231.7c-0.1-11.5-9.4-20.7-20.7-20.7c-0.1,0-0.1,0-0.2,0l-52.8,0.4c-11.4,0.1-20.6,9.5-20.6,21
			c0.1,11.5,9.4,20.7,20.7,20.7c0.1,0,0.1,0,0.2,0l52.8-0.4C458.1,252.6,467.3,243.2,467.2,231.7z"/>
		<path class="st0" d="M393.9,253.6h-0.2c-11.6,0-21.1-9.5-21.2-21.2c-0.1-11.8,9.3-21.4,21-21.5l52.9-0.4
			c11.6,0,21.1,9.5,21.2,21.2c0.1,11.8-9.3,21.4-21,21.5L393.9,253.6z M446.5,211.5l-0.2,0l-52.8,0.4c-11.2,0.1-20.2,9.3-20.1,20.5
			c0.1,11.1,9.2,20.2,20.2,20.2h0.2l52.8-0.4c11.2-0.1,20.2-9.3,20.1-20.5C466.7,220.5,457.6,211.5,446.5,211.5z"/>
	</g>
	<g>
		<path class="st0" d="M90.6,402.6c5.3,0,10.6-2,14.6-6.1l37.4-37.4c8.1-8.1,8.2-21.3,0.1-29.5c-8.1-8.2-21.2-8.2-29.3-0.1L76,367
			c-8.1,8.1-8.2,21.3-0.1,29.5C80,400.6,85.3,402.6,90.6,402.6z"/>
		<path class="st0" d="M90.6,403.1c-5.7,0-11-2.2-15-6.3c-4-4-6.2-9.4-6.2-15.1c0-5.7,2.2-11.1,6.3-15.1l37.4-37.4
			c4-4,9.3-6.2,14.9-6.2c5.7,0,11,2.2,15,6.3c4,4,6.2,9.4,6.2,15.1c0,5.7-2.2,11.1-6.3,15.1l-37.4,37.4
			C101.6,400.9,96.3,403.1,90.6,403.1z M128.1,324c-5.4,0-10.4,2.1-14.3,5.9l-37.4,37.4c-3.8,3.8-6,8.9-6,14.4
			c0,5.4,2.1,10.6,5.9,14.4c3.8,3.9,8.9,6,14.4,6c5.4,0,10.4-2.1,14.3-5.9l37.4-37.4c3.8-3.8,6-8.9,6-14.4c0-5.4-2.1-10.6-5.9-14.4
			C138.6,326.1,133.5,324,128.1,324z"/>
	</g>
	<g>
		<path class="st0" d="M362.6,135.9l37-37.9c8-8.2,7.9-21.4-0.2-29.5c-8.2-8.1-21.3-8-29.3,0.2l-37,37.9c-8,8.2-7.9,21.4,0.2,29.5
			c4,4,9.3,6,14.5,6C353.2,142.2,358.5,140.1,362.6,135.9z"/>
		<path class="st0" d="M347.8,142.7c-5.6,0-10.9-2.2-14.9-6.1c-8.3-8.3-8.4-21.8-0.2-30.2l37-37.9c4-4.1,9.4-6.4,15.1-6.4
			c5.6,0,10.9,2.2,14.9,6.1c8.3,8.3,8.4,21.8,0.2,30.2l-37,37.9C358.9,140.4,353.5,142.7,347.8,142.7z M384.8,63.1
			c-5.5,0-10.6,2.2-14.4,6.1l-37,37.9c-7.8,8-7.7,20.9,0.2,28.8c3.8,3.8,8.9,5.9,14.2,5.9c5.5,0,10.6-2.2,14.4-6.1l37-37.9
			c7.8-8,7.7-20.9-0.2-28.8C395.2,65.2,390.2,63.1,384.8,63.1z"/>
	</g>
	<g>
		<path class="st0" d="M126.7,143.1c5.3,0,10.6-2,14.6-6.1c8.1-8.1,8.2-21.3,0.1-29.5l-37.2-37.7c-8.1-8.2-21.2-8.2-29.3-0.1
			c-8.1,8.1-8.2,21.3-0.1,29.5l37.2,37.7C116.1,141,121.4,143.1,126.7,143.1z"/>
		<path class="st0" d="M126.7,143.6c-5.7,0-11-2.2-15-6.3L74.5,99.6c-4-4-6.2-9.4-6.2-15.1c0-5.7,2.2-11.1,6.3-15.1
			c4-4,9.3-6.2,14.9-6.2c5.7,0,11,2.2,15,6.3l37.2,37.7c4,4,6.2,9.4,6.2,15.1c0,5.7-2.2,11.1-6.3,15.1
			C137.7,141.4,132.4,143.6,126.7,143.6z M89.5,64.2c-5.4,0-10.4,2.1-14.3,5.9c-3.8,3.8-6,8.9-6,14.4s2.1,10.6,5.9,14.4l37.2,37.7
			c3.8,3.9,8.9,6,14.4,6c5.4,0,10.4-2.1,14.3-5.9c3.8-3.8,6-8.9,6-14.4c0-5.4-2.1-10.6-5.9-14.4l-37.2-37.7
			C100.1,66.3,95,64.2,89.5,64.2z"/>
	</g>
	<g>
		<path class="st0" d="M371.4,395.5c4,4,9.3,6,14.5,6c5.4,0,10.7-2.1,14.8-6.2c8-8.2,7.9-21.4-0.2-29.5l-37.6-37.2
			c-8.2-8.1-21.3-8-29.3,0.2c-8,8.2-7.9,21.4,0.2,29.5L371.4,395.5z"/>
		<path class="st0" d="M385.9,402c-5.6,0-10.9-2.2-14.9-6.1l-37.6-37.2c-8.3-8.3-8.4-21.8-0.2-30.2c4-4.1,9.4-6.4,15.1-6.4
			c5.6,0,10.9,2.2,14.9,6.1l37.6,37.2c8.3,8.3,8.4,21.8,0.2,30.2C397,399.7,391.6,402,385.9,402z M348.3,323
			c-5.5,0-10.6,2.2-14.4,6.1c-7.8,8-7.7,20.9,0.2,28.8l37.6,37.2c3.8,3.8,8.9,5.9,14.2,5.9c5.5,0,10.6-2.2,14.4-6.1
			c7.8-8,7.7-20.9-0.2-28.8l-37.6-37.2C358.7,325.1,353.7,323,348.3,323z"/>
	</g>
</g>
</svg>
