<svg width="27" height="36" viewBox="0 0 27 36" fill="none" xmlns="http://www.w3.org/2000/svg">
<path d="M13.0908 0.5C5.87194 0.5 0 6.37213 0 13.5908C0 15.9424 1.10745 18.9092 3.37698 22.6621C5.26375 25.7794 7.60165 28.8761 9.65955 31.6035C10.6097 32.8613 11.5053 34.0508 12.1957 35.0352C12.4008 35.3291 12.7357 35.5 13.0912 35.5C13.4467 35.5 13.7817 35.3291 13.9867 35.0352C14.6772 34.0508 15.5727 32.8613 16.5229 31.6035C18.5805 28.8759 20.9116 25.7792 22.8055 22.6621C25.075 18.9091 26.1824 15.9421 26.1824 13.5908C26.1824 6.37194 20.3103 0.5 13.0917 0.5L13.0908 0.5ZM13.0908 19.6408C9.7548 19.6408 7.04089 16.9269 7.04089 13.591C7.04089 10.255 9.7548 7.54108 13.0908 7.54108C16.4268 7.54108 19.1407 10.255 19.1407 13.591C19.1407 16.9269 16.4268 19.6408 13.0908 19.6408Z" fill="#991818"/>
</svg>
