<svg width="20" height="20" viewBox="0 0 20 20" fill="none" xmlns="http://www.w3.org/2000/svg">
<path d="M6.66747 10.0004C6.66747 8.15945 8.15945 6.66667 10.0004 6.66667C11.8414 6.66667 13.3341 8.15945 13.3341 10.0004C13.3341 11.8414 11.8414 13.3341 10.0004 13.3341C8.15945 13.3341 6.66747 11.8414 6.66747 10.0004ZM4.86531 10.0004C4.86531 12.8365 7.16429 15.1355 10.0004 15.1355C12.8365 15.1355 15.1355 12.8365 15.1355 10.0004C15.1355 7.16429 12.8365 4.86531 10.0004 4.86531C7.16429 4.86531 4.86531 7.16429 4.86531 10.0004ZM14.1387 4.66171C14.1386 4.89905 14.2089 5.1311 14.3407 5.3285C14.4725 5.5259 14.6598 5.67979 14.8791 5.7707C15.0983 5.86162 15.3396 5.88548 15.5724 5.83927C15.8052 5.79306 16.0191 5.67885 16.187 5.51109C16.3549 5.34333 16.4693 5.12954 16.5157 4.89678C16.5621 4.66401 16.5384 4.42271 16.4477 4.20339C16.3569 3.98408 16.2032 3.79659 16.0059 3.66465C15.8086 3.53271 15.5766 3.46223 15.3393 3.46214H15.3388C15.0206 3.46229 14.7156 3.5887 14.4905 3.81362C14.2655 4.03854 14.139 4.34356 14.1387 4.66171ZM5.96024 18.1405C4.98524 18.0961 4.4553 17.9337 4.10312 17.7965C3.63623 17.6147 3.30309 17.3982 2.95284 17.0484C2.60258 16.6987 2.38578 16.3659 2.20481 15.899C2.06752 15.5469 1.90512 15.0168 1.86079 14.0418C1.81231 12.9877 1.80263 12.6711 1.80263 10.0005C1.80263 7.32989 1.81311 7.01412 1.86079 5.95912C1.9052 4.98412 2.0688 4.45506 2.20481 4.102C2.38658 3.63511 2.60306 3.30197 2.95284 2.95172C3.30261 2.60146 3.63543 2.38466 4.10312 2.20369C4.45514 2.0664 4.98524 1.904 5.96024 1.85967C7.01436 1.81119 7.33101 1.80151 10.0004 1.80151C12.6698 1.80151 12.9868 1.81199 14.0418 1.85967C15.0168 1.90408 15.5458 2.06768 15.8989 2.20369C16.3658 2.38466 16.6989 2.60194 17.0492 2.95172C17.3994 3.30149 17.6154 3.63511 17.7972 4.102C17.9345 4.45402 18.0969 4.98412 18.1412 5.95912C18.1897 7.01412 18.1994 7.32989 18.1994 10.0005C18.1994 12.6711 18.1897 12.9868 18.1412 14.0418C18.0968 15.0168 17.9336 15.5468 17.7972 15.899C17.6154 16.3659 17.3989 16.699 17.0492 17.0484C16.6994 17.3979 16.3658 17.6147 15.8989 17.7965C15.5469 17.9338 15.0168 18.0962 14.0418 18.1405C12.9876 18.189 12.671 18.1987 10.0004 18.1987C7.32981 18.1987 7.01404 18.189 5.96024 18.1405ZM5.87744 0.0605624C4.81283 0.109044 4.08536 0.277851 3.45006 0.525061C2.79211 0.780351 2.23513 1.12285 1.67855 1.67855C1.12196 2.23425 0.780351 2.79211 0.525061 3.45006C0.277851 4.08576 0.109044 4.81283 0.0605624 5.87744C0.0112805 6.94372 0 7.28461 0 10.0004C0 12.7162 0.0112805 13.0571 0.0605624 14.1234C0.109044 15.188 0.277851 15.915 0.525061 16.5507C0.780351 17.2083 1.12205 17.7668 1.67855 18.3223C2.23505 18.8777 2.79211 19.2197 3.45006 19.4757C4.08656 19.723 4.81283 19.8918 5.87744 19.9402C6.94428 19.9887 7.28461 20.0008 10.0004 20.0008C12.7162 20.0008 13.0571 19.9895 14.1234 19.9402C15.188 19.8918 15.915 19.723 16.5507 19.4757C17.2083 19.2197 17.7657 18.878 18.3223 18.3223C18.8788 17.7666 19.2197 17.2083 19.4757 16.5507C19.723 15.915 19.8926 15.188 19.9402 14.1234C19.9887 13.0563 20 12.7162 20 10.0004C20 7.28461 19.9887 6.94372 19.9402 5.87744C19.8918 4.81275 19.723 4.08536 19.4757 3.45006C19.2197 2.79251 18.878 2.23513 18.3223 1.67855C17.7666 1.12196 17.2083 0.780351 16.5515 0.525061C15.915 0.277851 15.188 0.108244 14.1242 0.0605624C13.0579 0.0120805 12.717 0 10.0012 0C7.28541 0 6.94428 0.0112805 5.87744 0.0605624Z" fill="url(#paint0_radial_87_539)"/>
<path d="M6.66747 10.0004C6.66747 8.15945 8.15945 6.66667 10.0004 6.66667C11.8414 6.66667 13.3341 8.15945 13.3341 10.0004C13.3341 11.8414 11.8414 13.3341 10.0004 13.3341C8.15945 13.3341 6.66747 11.8414 6.66747 10.0004ZM4.86531 10.0004C4.86531 12.8365 7.16429 15.1355 10.0004 15.1355C12.8365 15.1355 15.1355 12.8365 15.1355 10.0004C15.1355 7.16429 12.8365 4.86531 10.0004 4.86531C7.16429 4.86531 4.86531 7.16429 4.86531 10.0004ZM14.1387 4.66171C14.1386 4.89905 14.2089 5.1311 14.3407 5.3285C14.4725 5.5259 14.6598 5.67979 14.8791 5.7707C15.0983 5.86162 15.3396 5.88548 15.5724 5.83927C15.8052 5.79306 16.0191 5.67885 16.187 5.51109C16.3549 5.34333 16.4693 5.12954 16.5157 4.89678C16.5621 4.66401 16.5384 4.42271 16.4477 4.20339C16.3569 3.98408 16.2032 3.79659 16.0059 3.66465C15.8086 3.53271 15.5766 3.46223 15.3393 3.46214H15.3388C15.0206 3.46229 14.7156 3.5887 14.4905 3.81362C14.2655 4.03854 14.139 4.34356 14.1387 4.66171ZM5.96024 18.1405C4.98524 18.0961 4.4553 17.9337 4.10312 17.7965C3.63623 17.6147 3.30309 17.3982 2.95284 17.0484C2.60258 16.6987 2.38578 16.3659 2.20481 15.899C2.06752 15.5469 1.90512 15.0168 1.86079 14.0418C1.81231 12.9877 1.80263 12.6711 1.80263 10.0005C1.80263 7.32989 1.81311 7.01412 1.86079 5.95912C1.9052 4.98412 2.0688 4.45506 2.20481 4.102C2.38658 3.63511 2.60306 3.30197 2.95284 2.95172C3.30261 2.60146 3.63543 2.38466 4.10312 2.20369C4.45514 2.0664 4.98524 1.904 5.96024 1.85967C7.01436 1.81119 7.33101 1.80151 10.0004 1.80151C12.6698 1.80151 12.9868 1.81199 14.0418 1.85967C15.0168 1.90408 15.5458 2.06768 15.8989 2.20369C16.3658 2.38466 16.6989 2.60194 17.0492 2.95172C17.3994 3.30149 17.6154 3.63511 17.7972 4.102C17.9345 4.45402 18.0969 4.98412 18.1412 5.95912C18.1897 7.01412 18.1994 7.32989 18.1994 10.0005C18.1994 12.6711 18.1897 12.9868 18.1412 14.0418C18.0968 15.0168 17.9336 15.5468 17.7972 15.899C17.6154 16.3659 17.3989 16.699 17.0492 17.0484C16.6994 17.3979 16.3658 17.6147 15.8989 17.7965C15.5469 17.9338 15.0168 18.0962 14.0418 18.1405C12.9876 18.189 12.671 18.1987 10.0004 18.1987C7.32981 18.1987 7.01404 18.189 5.96024 18.1405ZM5.87744 0.0605624C4.81283 0.109044 4.08536 0.277851 3.45006 0.525061C2.79211 0.780351 2.23513 1.12285 1.67855 1.67855C1.12196 2.23425 0.780351 2.79211 0.525061 3.45006C0.277851 4.08576 0.109044 4.81283 0.0605624 5.87744C0.0112805 6.94372 0 7.28461 0 10.0004C0 12.7162 0.0112805 13.0571 0.0605624 14.1234C0.109044 15.188 0.277851 15.915 0.525061 16.5507C0.780351 17.2083 1.12205 17.7668 1.67855 18.3223C2.23505 18.8777 2.79211 19.2197 3.45006 19.4757C4.08656 19.723 4.81283 19.8918 5.87744 19.9402C6.94428 19.9887 7.28461 20.0008 10.0004 20.0008C12.7162 20.0008 13.0571 19.9895 14.1234 19.9402C15.188 19.8918 15.915 19.723 16.5507 19.4757C17.2083 19.2197 17.7657 18.878 18.3223 18.3223C18.8788 17.7666 19.2197 17.2083 19.4757 16.5507C19.723 15.915 19.8926 15.188 19.9402 14.1234C19.9887 13.0563 20 12.7162 20 10.0004C20 7.28461 19.9887 6.94372 19.9402 5.87744C19.8918 4.81275 19.723 4.08536 19.4757 3.45006C19.2197 2.79251 18.878 2.23513 18.3223 1.67855C17.7666 1.12196 17.2083 0.780351 16.5515 0.525061C15.915 0.277851 15.188 0.108244 14.1242 0.0605624C13.0579 0.0120805 12.717 0 10.0012 0C7.28541 0 6.94428 0.0112805 5.87744 0.0605624Z" fill="url(#paint1_radial_87_539)"/>
<defs>
<radialGradient id="paint0_radial_87_539" cx="0" cy="0" r="1" gradientUnits="userSpaceOnUse" gradientTransform="translate(2.65723 20.0953) scale(26.1094 26.1094)">
<stop offset="0.09" stop-color="#FA8F21"/>
<stop offset="0.78" stop-color="#D82D7E"/>
</radialGradient>
<radialGradient id="paint1_radial_87_539" cx="0" cy="0" r="1" gradientUnits="userSpaceOnUse" gradientTransform="translate(12.1296 20.9913) scale(20.5778)">
<stop offset="0.64" stop-color="#8C3AAA" stop-opacity="0"/>
<stop offset="1" stop-color="#8C3AAA"/>
</radialGradient>
</defs>
</svg>
