<svg width="22" height="21" viewBox="0 0 22 21" fill="none" xmlns="http://www.w3.org/2000/svg">
<path d="M5.4563 20.687V7.19259H0.952943V20.687H5.45677H5.4563ZM3.20556 5.35047C4.77565 5.35047 5.75313 4.31425 5.75313 3.01928C5.72374 1.69479 4.77565 0.6875 3.23542 0.6875C1.69414 0.6875 0.6875 1.69479 0.6875 3.01916C0.6875 4.31413 1.66463 5.35035 3.17606 5.35035H3.20521L3.20556 5.35047ZM7.94898 20.687H12.452V13.1519C12.452 12.7492 12.4814 12.3453 12.6003 12.0576C12.9257 11.2515 13.6667 10.417 14.911 10.417C16.5401 10.417 17.1922 11.6544 17.1922 13.4687V20.687H21.6951V12.9497C21.6951 8.80499 19.4738 6.87622 16.511 6.87622C14.0819 6.87622 13.0151 8.22845 12.4224 9.14945H12.4523V7.19306H7.94921C8.00799 8.45899 7.94886 20.6875 7.94886 20.6875L7.94898 20.687Z" fill="#006699"/>
</svg>
