<?xml version="1.0" encoding="utf-8"?>
<!-- Generator: Adobe Illustrator 23.0.0, SVG Export Plug-In . SVG Version: 6.00 Build 0)  -->
<svg version="1.1" id="Capa_1" xmlns="http://www.w3.org/2000/svg" xmlns:xlink="http://www.w3.org/1999/xlink" x="0px" y="0px"
	 viewBox="0 0 510.8 510.8" style="enable-background:new 0 0 510.8 510.8;" xml:space="preserve">
<style type="text/css">
	.st0{fill:#FFFFFF;}
</style>
<g>
	<g>
		<path class="st0" d="M191.9,395.2c31.8-1.7,61-12.5,85.3-29.7c-80.4-0.3-147.7-64.5-152.1-147.2c-3.7-69.1,37.7-130,98-153.3
			c-15.6-4-32-5.7-49-4.8C83.2,65.1,13.4,144,18.4,236.5C23.3,329,101,400,191.9,395.2z"/>
		<polygon class="st0" points="402.7,442.4 422.7,478.6 438.8,440.5 478.8,432.4 448,405 452.8,363.8 417.7,385 380.6,367.6 
			389.7,408.1 362.1,438.6 		"/>
		<polygon class="st0" points="234.4,223.3 206.8,253.8 247.4,257.6 267.5,293.8 283.5,255.7 323.5,247.6 292.8,220.2 297.5,179 
			262.5,200.2 225.4,182.9 		"/>
		<polygon class="st0" points="416.6,123.3 436.7,159.5 452.7,121.4 492.7,113.3 462,85.9 466.7,44.7 431.7,65.9 394.6,48.5 
			403.7,89 376,119.5 		"/>
	</g>
</g>
</svg>
