<svg width="25" height="21" viewBox="0 0 25 21" fill="none" xmlns="http://www.w3.org/2000/svg">
<path d="M7.91644 20.8571C16.9016 20.8571 21.8153 13.1633 21.8153 6.49152C21.8153 6.27302 21.8109 6.05552 21.8014 5.83892C22.7575 5.12388 23.5826 4.23854 24.2381 3.22442C23.3628 3.62662 22.4209 3.89732 21.4328 4.01937C22.4414 3.39432 23.2157 2.40547 23.581 1.22677C22.6221 1.81471 21.573 2.22919 20.4791 2.45232C19.5877 1.47092 18.3186 0.857117 16.9133 0.857117C14.2157 0.857117 12.0281 3.11822 12.0281 5.90537C12.0281 6.30162 12.0711 6.68692 12.1549 7.05662C8.09492 6.84547 4.49484 4.83637 2.08548 1.78142C1.65153 2.55194 1.42328 3.42764 1.42404 4.31912C1.42404 6.07082 2.28641 7.61717 3.59787 8.52187C2.82212 8.49738 2.06341 8.28081 1.38552 7.89037C1.38479 7.91157 1.38479 7.93222 1.38479 7.95487C1.38479 10.4 3.06859 12.4416 5.30378 12.9042C4.88398 13.0223 4.4508 13.0821 4.0157 13.0818C3.70148 13.0818 3.39525 13.0499 3.09763 12.9908C3.71953 14.9969 5.52286 16.4568 7.66093 16.4976C5.98898 17.852 3.88286 18.6588 1.5938 18.6588C1.20441 18.6591 0.815328 18.6358 0.428589 18.5888C2.59051 20.0211 5.15759 20.8568 7.91668 20.8568" fill="#1DA1F2"/>
</svg>
